<svg height="0" width="0">
   <symbol id="sun" viewBox="0 0 100 100" xmlns="http://www.w3.org/2000/svg">
      <path d="M49.6016 29.8262C45.9558 29.8262 42.6273 30.7295 39.6162 32.5362C36.6051 34.3428 34.1963 36.7516 32.3897 39.7627C30.583 42.7738 29.6797 46.1022 29.6797 49.7481C29.6797 53.3939 30.583 56.7223 32.3897 59.7334C34.1963 62.7445 36.6051 65.1533 39.6162 66.96C42.6273 68.7667 45.9558 69.67 49.6016 69.67C53.2148 69.67 56.527 68.7667 59.5381 66.96C62.5491 65.1533 64.958 62.7445 66.7647 59.7334C68.5713 56.7223 69.4746 53.3939 69.4746 49.7481C69.4746 46.1022 68.5713 42.7738 66.7647 39.7627C64.958 36.7516 62.5491 34.3428 59.5381 32.5362C56.527 30.7295 53.2148 29.8262 49.6016 29.8262ZM53.4102 11.8086C53.4102 10.7995 53.0358 9.9125 52.2871 9.1475C51.5384 8.3825 50.6432 8 49.6016 8C48.5599 8 47.6647 8.3825 46.9161 9.1475C46.1673 9.9125 45.793 10.7995 45.793 11.8086V19.67C45.793 20.6791 46.1673 21.5661 46.9161 22.3311C47.6647 23.0961 48.5599 23.4786 49.6016 23.4786C50.6432 23.4786 51.5384 23.0961 52.2871 22.3311C53.0358 21.5661 53.4102 20.6791 53.4102 19.67V11.8086ZM68.1075 25.8711C67.3913 26.5873 67.0332 27.4744 67.0332 28.5323C67.0332 29.5902 67.3913 30.4935 68.1075 31.2422C68.8561 31.9584 69.7594 32.3246 70.8174 32.3409C71.8753 32.3572 72.7786 31.9909 73.5274 31.2422L79.0938 25.6758C79.8099 24.9271 80.168 24.0157 80.168 22.9415C80.168 21.8672 79.8099 20.972 79.0938 20.2559C78.345 19.5398 77.4417 19.1817 76.3838 19.1817C75.3258 19.1817 74.4388 19.5398 73.7227 20.2559L68.1075 25.8711ZM87.3946 53.5567C88.4036 53.5567 89.2907 53.1823 90.0557 52.4336C90.8207 51.6849 91.2032 50.7898 91.2032 49.7481C91.2032 48.7064 90.8207 47.8112 90.0557 47.0625C89.2907 46.3138 88.4036 45.9395 87.3946 45.9395H79.5821C78.5404 45.9395 77.6452 46.3138 76.8965 47.0625C76.1478 47.8112 75.7735 48.7064 75.7735 49.7481C75.7735 50.7898 76.1478 51.6849 76.8965 52.4336C77.6452 53.1823 78.5404 53.5567 79.5821 53.5567H87.3946ZM73.4786 68.3028C72.7624 67.5867 71.8753 67.2286 70.8174 67.2286C69.7594 67.2286 68.8561 67.5867 68.1075 68.3028C67.3913 69.0515 67.0332 69.9548 67.0332 71.0127C67.0332 72.0707 67.3913 72.9578 68.1075 73.6739L73.7227 79.2891C74.4388 80.0053 75.3258 80.3552 76.3838 80.3389C77.4417 80.3226 78.345 79.9564 79.0938 79.2403C79.8099 78.5241 80.168 77.6371 80.168 76.5791C80.168 75.5212 79.8099 74.6179 79.0938 73.8692L73.4786 68.3028ZM53.4102 79.8262C53.4102 78.8171 53.0358 77.9301 52.2871 77.1651C51.5384 76.4001 50.6432 76.0176 49.6016 76.0176C48.5599 76.0176 47.6647 76.4001 46.9161 77.1651C46.1673 77.9301 45.793 78.8171 45.793 79.8262V87.6875C45.793 88.6967 46.1673 89.5837 46.9161 90.3487C47.6647 91.1137 48.5599 91.4961 49.6016 91.4961C50.6432 91.4961 51.5384 91.1137 52.2871 90.3487C53.0358 89.5837 53.4102 88.6967 53.4102 87.6875V79.8262ZM20.1094 73.8204C19.3607 74.5691 18.9864 75.4724 18.9864 76.5303C18.9864 77.5883 19.3444 78.4753 20.0606 79.1915C20.7767 79.9076 21.6719 80.2738 22.7461 80.2901C23.8203 80.3064 24.7155 79.9564 25.4317 79.2403L30.9981 73.6739C31.7467 72.9578 32.1211 72.0707 32.1211 71.0127C32.1211 69.9548 31.763 69.0515 31.0469 68.3028C30.3307 67.5867 29.4356 67.2286 28.3614 67.2286C27.2871 67.2286 26.3919 67.5867 25.6758 68.3028L20.1094 73.8204ZM11.8086 45.9395C10.7669 45.9395 9.87174 46.3138 9.12304 47.0625C8.37435 47.8112 8 48.7064 8 49.7481C8 50.7898 8.37435 51.6849 9.12304 52.4336C9.87174 53.1823 10.7669 53.5567 11.8086 53.5567H19.5723C20.6139 53.5567 21.5091 53.1823 22.2579 52.4336C23.0065 51.6849 23.3809 50.7898 23.3809 49.7481C23.3809 48.7064 23.0065 47.8112 22.2579 47.0625C21.5091 46.3138 20.6139 45.9395 19.5723 45.9395H11.8086ZM25.6758 31.2422C26.3919 31.9584 27.279 32.3165 28.337 32.3165C29.3949 32.3165 30.2819 31.9584 30.9981 31.2422C31.7467 30.5261 32.1211 29.6309 32.1211 28.5567C32.1211 27.4825 31.763 26.5873 31.0469 25.8711L25.4805 20.2559C24.7969 19.5398 23.918 19.1817 22.8438 19.1817C21.7696 19.1817 20.8744 19.5398 20.1582 20.2559C19.4095 20.972 19.0352 21.8672 19.0352 22.9415C19.0352 24.0157 19.3932 24.9109 20.1094 25.627L25.6758 31.2422Z" />
   </symbol>
   <symbol id="moon" viewBox="0 0 100 100" xmlns="http://www.w3.org/2000/svg">
      <path d="M71.6445 62.9785C64.6784 62.9785 58.6481 61.6194 53.5537 58.9014C48.4593 56.1832 44.5286 52.3095 41.7617 47.2803C38.9948 42.2509 37.6113 36.2369 37.6113 29.2383C37.6113 27.9036 37.7252 26.3736 37.9531 24.6484C38.181 22.9231 38.4821 21.2385 38.8564 19.5947C39.2308 17.9508 39.6296 16.6243 40.0527 15.6152C40.248 15.1269 40.3701 14.72 40.4189 14.3945C40.4678 14.0689 40.4922 13.8085 40.4922 13.6133C40.4922 13.0924 40.2969 12.5797 39.9062 12.0752C39.5156 11.5706 38.9134 11.3184 38.0996 11.3184C37.8717 11.3184 37.5218 11.3509 37.0498 11.416C36.5778 11.4811 36.0977 11.6113 35.6094 11.8066C30.8242 13.6946 26.625 16.543 23.0117 20.3516C19.3984 24.1602 16.5908 28.5628 14.5889 33.5596C12.5869 38.5563 11.5859 43.7728 11.5859 49.209C11.5859 54.9381 12.6032 60.1953 14.6377 64.9805C16.6722 69.7656 19.5124 73.8916 23.1582 77.3584C26.8041 80.8252 31.0684 83.5107 35.9512 85.415C40.834 87.3193 46.14 88.2714 51.8691 88.2714C57.4681 88.2714 62.6846 87.2542 67.5186 85.2197C72.3525 83.1852 76.5192 80.4508 80.0186 77.0166C83.5179 73.5823 86.0651 69.7656 87.6602 65.5664C87.8229 65.0456 87.9369 64.5573 88.002 64.1016C88.0671 63.6458 88.0996 63.3203 88.0996 63.125C88.0996 62.3437 87.8392 61.7333 87.3184 61.2939C86.7975 60.8545 86.2604 60.6348 85.707 60.6348C85.2187 60.6348 84.6003 60.7487 83.8516 60.9766C82.3542 61.4648 80.5231 61.9206 78.3584 62.3438C76.1937 62.7669 73.9557 62.9785 71.6445 62.9785Z" />
   </symbol>
   <symbol id="up" viewBox="0 0 70 88" xmlns="http://www.w3.org/2000/svg">
      <path d="M12.9463 87.4687H56.7451C60.9118 87.4687 64.0286 86.4433 66.0957 84.3926C68.1628 82.3418 69.1963 79.2656 69.1963 75.164V38.543C69.1963 34.4414 68.1628 31.3652 66.0957 29.3145C64.0286 27.2637 60.9118 26.2383 56.7451 26.2383H39.2158V53.8262C39.2158 54.998 38.7845 56.0071 37.9219 56.8535C37.0592 57.6998 36.0257 58.123 34.8213 58.123C33.6494 58.123 32.624 57.6998 31.7451 56.8535C30.8662 56.0071 30.4268 54.998 30.4268 53.8262V26.2383H12.9463C8.81216 26.2383 5.70343 27.2637 3.6201 29.3145C1.53678 31.3652 0.495117 34.4414 0.495117 38.543V75.164C0.495117 79.2656 1.53678 82.3418 3.6201 84.3926C5.70343 86.4433 8.81216 87.4687 12.9463 87.4687ZM34.8213 29.7051C35.7653 29.7051 36.5872 29.3633 37.2871 28.6797C37.987 27.9961 38.3369 27.1985 38.3369 26.2871V15.6914L38.044 9.83198L40.0947 12.0781L45.4658 17.8887C46.0517 18.5723 46.833 18.9141 47.8096 18.9141C48.7211 18.9141 49.486 18.6292 50.1045 18.0596C50.723 17.4899 51.0322 16.7656 51.0322 15.8867C51.0322 15.0403 50.6741 14.2754 49.958 13.5918L37.3604 1.53117C36.9372 1.07551 36.5221 0.766277 36.1152 0.603477C35.7083 0.440744 35.277 0.359375 34.8213 0.359375C34.3981 0.359375 33.9831 0.440744 33.5762 0.603477C33.1693 0.766277 32.7379 1.07551 32.2822 1.53117L19.6846 13.5918C19.001 14.2754 18.6592 15.0403 18.6592 15.8867C18.6592 16.7656 18.9522 17.4899 19.5381 18.0596C20.124 18.6292 20.889 18.9141 21.833 18.9141C22.8096 18.9141 23.6071 18.5723 24.2256 17.8887L29.5967 12.0781L31.6475 9.83198L31.3545 15.6914V26.2871C31.3545 27.1985 31.7044 27.9961 32.4043 28.6797C33.1042 29.3633 33.9098 29.7051 34.8213 29.7051Z" />
   </symbol>
   <symbol id="down" viewBox="0 0 70 84" xmlns="http://www.w3.org/2000/svg">
      <path d="M0.495117 71.164C0.495117 75.2656 1.53678 78.3418 3.6201 80.3925C5.70343 82.4433 8.81216 83.4687 12.9463 83.4687H56.7451C60.9118 83.4687 64.0286 82.4433 66.0957 80.3925C68.1628 78.3418 69.1963 75.2656 69.1963 71.164V34.543C69.1963 30.4414 68.1628 27.3652 66.0957 25.3145C64.0286 23.2637 60.9118 22.2383 56.7451 22.2383H38.3369V3.58587C38.3369 2.64187 37.987 1.8362 37.2871 1.16887C36.5872 0.501602 35.7653 0.167969 34.8213 0.167969C33.9098 0.167969 33.1042 0.501602 32.4043 1.16887C31.7044 1.8362 31.3545 2.64187 31.3545 3.58587V22.2383H12.9463C8.81216 22.2383 5.70343 23.2637 3.6201 25.3145C1.53678 27.3652 0.495117 30.4414 0.495117 34.543V71.164ZM34.8213 58.5664C34.3981 58.5664 33.9831 58.485 33.5762 58.3223C33.1693 58.1595 32.7379 57.8502 32.2822 57.3945L19.6846 45.334C19.001 44.6504 18.6592 43.8854 18.6592 43.0391C18.6592 42.1601 18.9522 41.4358 19.5381 40.8662C20.124 40.2965 20.889 40.0117 21.833 40.0117C22.8096 40.0117 23.6071 40.3535 24.2256 41.0371L29.7432 47.043L31.6475 49.0938L31.3545 43.2344V25.2656C31.3545 24.289 31.68 23.4997 32.3311 22.8975C32.9821 22.2952 33.8122 21.9941 34.8213 21.9941C35.863 21.9941 36.7093 22.2952 37.3604 22.8975C38.0114 23.4997 38.3369 24.289 38.3369 25.2656V43.2344L38.044 49.0449L39.9483 47.043L45.4658 41.0371C46.0517 40.3535 46.833 40.0117 47.8096 40.0117C48.7211 40.0117 49.486 40.2965 50.1045 40.8662C50.723 41.4358 51.0322 42.1601 51.0322 43.0391C51.0322 43.8854 50.6741 44.6504 49.958 45.334L37.3604 57.3945C36.9372 57.8502 36.5221 58.1595 36.1152 58.3223C35.7083 58.485 35.277 58.5664 34.8213 58.5664Z" />
   </symbol>
   <symbol id="reset" viewBox="0 0 69 83" xmlns="http://www.w3.org/2000/svg">
      <path d="M0.766113 48.5781C0.766113 53.3307 1.64502 57.7659 3.40283 61.8838C5.16066 66.0016 7.60207 69.623 10.7271 72.748C13.8521 75.873 17.4735 78.3226 21.5913 80.0967C25.7091 81.8708 30.1281 82.7578 34.8482 82.7578C39.5682 82.7578 43.9871 81.8708 48.105 80.0967C52.2228 78.3226 55.8443 75.873 58.9693 72.748C62.0943 69.623 64.5357 66.0016 66.2935 61.8838C68.0513 57.7659 68.9302 53.3307 68.9302 48.5781C68.9302 43.858 68.0513 39.4391 66.2935 35.3213C64.5357 31.2034 62.0943 27.582 58.9693 24.457C55.8443 21.332 52.2228 18.8906 48.105 17.1328C43.9871 15.375 39.5682 14.4961 34.8482 14.4961C33.9367 14.4961 33.0171 14.5368 32.0894 14.6182C31.1616 14.6995 30.2583 14.8216 29.3794 14.9844L38.3638 6.1953C38.6567 5.83723 38.8846 5.4466 39.0474 5.0234C39.2101 4.60027 39.2915 4.16083 39.2915 3.7051C39.2915 2.69597 38.9578 1.84147 38.2906 1.1416C37.6232 0.441735 36.8176 0.0917969 35.8736 0.0917969C34.7993 0.0917969 33.9529 0.449867 33.3345 1.166L17.9048 16.791C17.2212 17.4746 16.8794 18.3047 16.8794 19.2812C16.8794 20.2903 17.2212 21.1367 17.9048 21.8203L33.3345 37.25C33.9529 37.9011 34.7993 38.2266 35.8736 38.2266C36.8176 38.2266 37.6232 37.8929 38.2906 37.2256C38.9578 36.5583 39.2915 35.72 39.2915 34.7109C39.2915 34.2552 39.2101 33.8239 39.0474 33.417C38.8846 33.0101 38.6404 32.6276 38.315 32.2695L27.9634 22.1133C29.005 21.8854 30.0955 21.7308 31.2349 21.6494C32.3742 21.568 33.5786 21.5273 34.8482 21.5273C38.5916 21.5273 42.0991 22.2272 45.3706 23.627C48.6421 25.0267 51.5148 26.9636 53.9888 29.4375C56.4627 31.9114 58.3995 34.7842 59.7993 38.0557C61.1991 41.3272 61.899 44.8346 61.899 48.5781C61.899 52.3542 61.1991 55.8779 59.7993 59.1494C58.3995 62.4209 56.4627 65.2936 53.9888 67.7676C51.5148 70.2415 48.6421 72.1784 45.3706 73.5781C42.0991 74.9779 38.5916 75.6777 34.8482 75.6777C31.1046 75.6777 27.5971 74.9779 24.3257 73.5781C21.0542 72.1784 18.1815 70.2415 15.7075 67.7676C13.2335 65.2936 11.2967 62.4209 9.89697 59.1494C8.49724 55.8779 7.79737 52.3542 7.79737 48.5781C7.79737 47.5364 7.49627 46.6738 6.89407 45.9902C6.29181 45.3066 5.46984 44.9648 4.42817 44.9648C3.35399 44.9648 2.4751 45.3066 1.7915 45.9902C1.10791 46.6738 0.766113 47.5364 0.766113 48.5781Z" />
   </symbol>
</svg>
