<svg height="0" width="0">
   <symbol id="sun" viewBox="0 0 100 100" xmlns="http://www.w3.org/2000/svg">
      <path d="M49.6016 29.8262C45.9558 29.8262 42.6273 30.7295 39.6162 32.5362C36.6051 34.3428 34.1963 36.7516 32.3897 39.7627C30.583 42.7738 29.6797 46.1022 29.6797 49.7481C29.6797 53.3939 30.583 56.7223 32.3897 59.7334C34.1963 62.7445 36.6051 65.1533 39.6162 66.96C42.6273 68.7667 45.9558 69.67 49.6016 69.67C53.2148 69.67 56.527 68.7667 59.5381 66.96C62.5491 65.1533 64.958 62.7445 66.7647 59.7334C68.5713 56.7223 69.4746 53.3939 69.4746 49.7481C69.4746 46.1022 68.5713 42.7738 66.7647 39.7627C64.958 36.7516 62.5491 34.3428 59.5381 32.5362C56.527 30.7295 53.2148 29.8262 49.6016 29.8262ZM53.4102 11.8086C53.4102 10.7995 53.0358 9.9125 52.2871 9.1475C51.5384 8.3825 50.6432 8 49.6016 8C48.5599 8 47.6647 8.3825 46.9161 9.1475C46.1673 9.9125 45.793 10.7995 45.793 11.8086V19.67C45.793 20.6791 46.1673 21.5661 46.9161 22.3311C47.6647 23.0961 48.5599 23.4786 49.6016 23.4786C50.6432 23.4786 51.5384 23.0961 52.2871 22.3311C53.0358 21.5661 53.4102 20.6791 53.4102 19.67V11.8086ZM68.1075 25.8711C67.3913 26.5873 67.0332 27.4744 67.0332 28.5323C67.0332 29.5902 67.3913 30.4935 68.1075 31.2422C68.8561 31.9584 69.7594 32.3246 70.8174 32.3409C71.8753 32.3572 72.7786 31.9909 73.5274 31.2422L79.0938 25.6758C79.8099 24.9271 80.168 24.0157 80.168 22.9415C80.168 21.8672 79.8099 20.972 79.0938 20.2559C78.345 19.5398 77.4417 19.1817 76.3838 19.1817C75.3258 19.1817 74.4388 19.5398 73.7227 20.2559L68.1075 25.8711ZM87.3946 53.5567C88.4036 53.5567 89.2907 53.1823 90.0557 52.4336C90.8207 51.6849 91.2032 50.7898 91.2032 49.7481C91.2032 48.7064 90.8207 47.8112 90.0557 47.0625C89.2907 46.3138 88.4036 45.9395 87.3946 45.9395H79.5821C78.5404 45.9395 77.6452 46.3138 76.8965 47.0625C76.1478 47.8112 75.7735 48.7064 75.7735 49.7481C75.7735 50.7898 76.1478 51.6849 76.8965 52.4336C77.6452 53.1823 78.5404 53.5567 79.5821 53.5567H87.3946ZM73.4786 68.3028C72.7624 67.5867 71.8753 67.2286 70.8174 67.2286C69.7594 67.2286 68.8561 67.5867 68.1075 68.3028C67.3913 69.0515 67.0332 69.9548 67.0332 71.0127C67.0332 72.0707 67.3913 72.9578 68.1075 73.6739L73.7227 79.2891C74.4388 80.0053 75.3258 80.3552 76.3838 80.3389C77.4417 80.3226 78.345 79.9564 79.0938 79.2403C79.8099 78.5241 80.168 77.6371 80.168 76.5791C80.168 75.5212 79.8099 74.6179 79.0938 73.8692L73.4786 68.3028ZM53.4102 79.8262C53.4102 78.8171 53.0358 77.9301 52.2871 77.1651C51.5384 76.4001 50.6432 76.0176 49.6016 76.0176C48.5599 76.0176 47.6647 76.4001 46.9161 77.1651C46.1673 77.9301 45.793 78.8171 45.793 79.8262V87.6875C45.793 88.6967 46.1673 89.5837 46.9161 90.3487C47.6647 91.1137 48.5599 91.4961 49.6016 91.4961C50.6432 91.4961 51.5384 91.1137 52.2871 90.3487C53.0358 89.5837 53.4102 88.6967 53.4102 87.6875V79.8262ZM20.1094 73.8204C19.3607 74.5691 18.9864 75.4724 18.9864 76.5303C18.9864 77.5883 19.3444 78.4753 20.0606 79.1915C20.7767 79.9076 21.6719 80.2738 22.7461 80.2901C23.8203 80.3064 24.7155 79.9564 25.4317 79.2403L30.9981 73.6739C31.7467 72.9578 32.1211 72.0707 32.1211 71.0127C32.1211 69.9548 31.763 69.0515 31.0469 68.3028C30.3307 67.5867 29.4356 67.2286 28.3614 67.2286C27.2871 67.2286 26.3919 67.5867 25.6758 68.3028L20.1094 73.8204ZM11.8086 45.9395C10.7669 45.9395 9.87174 46.3138 9.12304 47.0625C8.37435 47.8112 8 48.7064 8 49.7481C8 50.7898 8.37435 51.6849 9.12304 52.4336C9.87174 53.1823 10.7669 53.5567 11.8086 53.5567H19.5723C20.6139 53.5567 21.5091 53.1823 22.2579 52.4336C23.0065 51.6849 23.3809 50.7898 23.3809 49.7481C23.3809 48.7064 23.0065 47.8112 22.2579 47.0625C21.5091 46.3138 20.6139 45.9395 19.5723 45.9395H11.8086ZM25.6758 31.2422C26.3919 31.9584 27.279 32.3165 28.337 32.3165C29.3949 32.3165 30.2819 31.9584 30.9981 31.2422C31.7467 30.5261 32.1211 29.6309 32.1211 28.5567C32.1211 27.4825 31.763 26.5873 31.0469 25.8711L25.4805 20.2559C24.7969 19.5398 23.918 19.1817 22.8438 19.1817C21.7696 19.1817 20.8744 19.5398 20.1582 20.2559C19.4095 20.972 19.0352 21.8672 19.0352 22.9415C19.0352 24.0157 19.3932 24.9109 20.1094 25.627L25.6758 31.2422Z" />
   </symbol>
   <symbol id="moon" viewBox="0 0 100 100" xmlns="http://www.w3.org/2000/svg">
      <path d="M71.6445 62.9785C64.6784 62.9785 58.6481 61.6194 53.5537 58.9014C48.4593 56.1832 44.5286 52.3095 41.7617 47.2803C38.9948 42.2509 37.6113 36.2369 37.6113 29.2383C37.6113 27.9036 37.7252 26.3736 37.9531 24.6484C38.181 22.9231 38.4821 21.2385 38.8564 19.5947C39.2308 17.9508 39.6296 16.6243 40.0527 15.6152C40.248 15.1269 40.3701 14.72 40.4189 14.3945C40.4678 14.0689 40.4922 13.8085 40.4922 13.6133C40.4922 13.0924 40.2969 12.5797 39.9062 12.0752C39.5156 11.5706 38.9134 11.3184 38.0996 11.3184C37.8717 11.3184 37.5218 11.3509 37.0498 11.416C36.5778 11.4811 36.0977 11.6113 35.6094 11.8066C30.8242 13.6946 26.625 16.543 23.0117 20.3516C19.3984 24.1602 16.5908 28.5628 14.5889 33.5596C12.5869 38.5563 11.5859 43.7728 11.5859 49.209C11.5859 54.9381 12.6032 60.1953 14.6377 64.9805C16.6722 69.7656 19.5124 73.8916 23.1582 77.3584C26.8041 80.8252 31.0684 83.5107 35.9512 85.415C40.834 87.3193 46.14 88.2714 51.8691 88.2714C57.4681 88.2714 62.6846 87.2542 67.5186 85.2197C72.3525 83.1852 76.5192 80.4508 80.0186 77.0166C83.5179 73.5823 86.0651 69.7656 87.6602 65.5664C87.8229 65.0456 87.9369 64.5573 88.002 64.1016C88.0671 63.6458 88.0996 63.3203 88.0996 63.125C88.0996 62.3437 87.8392 61.7333 87.3184 61.2939C86.7975 60.8545 86.2604 60.6348 85.707 60.6348C85.2187 60.6348 84.6003 60.7487 83.8516 60.9766C82.3542 61.4648 80.5231 61.9206 78.3584 62.3438C76.1937 62.7669 73.9557 62.9785 71.6445 62.9785Z" />
   </symbol>
</svg>
